<?xml version="1.0" encoding="utf-8"?>
<!-- Generator: Adobe Illustrator 27.2.0, SVG Export Plug-In . SVG Version: 6.00 Build 0)  -->
<svg version="1.1" id="Layer_1" xmlns="http://www.w3.org/2000/svg" xmlns:xlink="http://www.w3.org/1999/xlink" x="0px" y="0px"
	 viewBox="0 0 841.89 307.57" style="enable-background:new 0 0 841.89 307.57;" xml:space="preserve">
<style type="text/css">
	.st0{fill:#FFFFFF;}
</style>
<g>
	<g>
		<path class="st0" d="M762.86,140.63c-4.58-7.19-11.84-15.79-22.57-21.52c-5.41-2.89-11.71-5.05-19.03-5.94
			c13.02,7.09,27.11,16.5,42.4,28.77C763.39,141.51,763.15,141.08,762.86,140.63z"/>
		<path class="st0" d="M735.09,191.75c-3.13-7.21-7.21-15.07-12.21-21.68c-4.38-5.8-9.42-10.6-15.07-13.3
			c-1.4-0.67-2.85-1.19-4.33-1.59c0.59,0.49,1.17,0.92,1.76,1.44C714.46,164.63,724.39,176.09,735.09,191.75z"/>
		<path class="st0" d="M724.23,88.07c-4.54-1.91-10.24-3.21-17.38-3.21c-1.07,0-2.21,0.06-3.34,0.12
			c10.32,2.4,21.22,6.1,32.42,11.36C733.32,93.43,729.6,90.33,724.23,88.07z"/>
		<path class="st0" d="M734.1,148.02c-2.74-1.58-5.69-2.86-8.72-3.97c9.62,6.17,19.81,13.86,30.6,23.28
			C750.41,160.47,743.07,153.17,734.1,148.02z"/>
		<path class="st0" d="M608.58,156.42c-4.07,4.99-7.32,9.99-9.83,14.39c18.44-17.62,35.03-30.81,50.04-40.58
			c-6.74,1.49-12.79,3.96-18.2,7.07C621.55,142.49,614.27,149.43,608.58,156.42z"/>
		<path class="st0" d="M680.66,52.25c-56.08,0-101.54,45.46-101.54,101.54c0,49.3,35.15,90.37,81.74,99.58
			c0.24-0.19,0.44-0.43,0.69-0.6c1.6-1.12,3.47-1.99,5.53-2.75c4.12-1.5,9.04-2.49,13.81-3.19c3.83-0.56,7.54-0.91,10.64-1.13
			c-0.35-0.18-0.67-0.37-1.04-0.53c-3.09-1.42-6.72-2.45-10.35-3.16c-7.27-1.44-14.54-1.63-17.78-1.63c-0.99,0-1.61,0.02-1.73,0.02
			l-0.02,0c-0.99,0.03-1.9-0.64-2.34-1.72c-0.44-1.08-0.31-2.37,0.31-3.3c1.99-2.95,4.39-5.27,6.98-7.08
			c2.59-1.81,5.38-3.12,8.19-4.08c5.39-1.83,10.86-2.34,15.37-2.39c-1.36-0.54-2.8-1.02-4.31-1.4c-5.38-1.35-11.38-1.71-15.96-1.7
			c-4.19,0-7.2,0.29-7.52,0.32l-0.03,0c-0.98,0.1-1.93-0.51-2.41-1.56c-0.48-1.05-0.42-2.35,0.16-3.32c1.99-3.31,4.5-5.89,7.23-7.88
			c2.74-1.99,5.7-3.42,8.68-4.44c4.96-1.7,9.91-2.29,14.04-2.45c-0.95-0.42-1.93-0.78-2.93-1.09c-4.13-1.29-8.63-1.71-12.6-1.7
			c-6.35,0-11.32,1.06-11.39,1.08h0c-0.92,0.2-1.87-0.25-2.44-1.16c-0.57-0.91-0.68-2.14-0.28-3.18c1.43-3.7,3.49-6.67,5.88-8.97
			c2.39-2.3,5.08-3.95,7.86-5.14c5.55-2.37,11.42-2.95,16.1-2.96c0.36,0,0.69,0.01,1.04,0.02c-0.65-0.39-1.31-0.74-2.01-1.04
			c-3.02-1.31-6.48-1.81-9.86-1.81c-3.97,0-7.8,0.68-10.65,1.38c-2.85,0.7-4.7,1.41-4.76,1.43c-1.11,0.43-2.33-0.13-2.92-1.35
			c-0.6-1.22-0.43-2.79,0.4-3.78c6.86-8.16,13.35-13.87,19.53-17.57c2-1.2,3.95-2.1,5.89-2.89c-0.08-0.04-0.17-0.09-0.26-0.12
			c-1.57-0.7-3.09-1.23-4.59-1.7c-3.82,2.09-7.76,4.6-11.82,7.68c-14.89,11.29-31.41,29.71-49.33,58.03
			c-0.74,1.17-2.04,1.53-3.13,0.87c-1.08-0.66-1.62-2.15-1.3-3.57c0.02-0.1,1.74-7.6,5.41-17.7c3.68-10.1,9.29-22.8,17.22-33.33
			c5.29-7.01,11.65-13.06,19.19-16.56c4.31-2,9-3.14,14.03-3.14c2.97,0,6.07,0.45,9.26,1.3c5.96-3.08,11.68-5.14,17.16-6.29
			c-12.86-5.26-24.33-7.47-34.49-7.47c-0.23,0-0.45,0.02-0.68,0.02c-20.07,11.3-43.65,29.49-71.22,57.3
			c-0.9,0.91-2.18,0.94-3.11,0.1c-0.93-0.85-1.27-2.36-0.81-3.66c0.06-0.17,2.99-8.54,9.53-19.02
			c6.54-10.47,16.71-23.08,31.26-31.51c9.24-5.36,20.27-8.97,33.14-9.3c13.22-7.35,25.04-11.81,35.6-14.09
			c-14.33-5.37-26.93-7.59-37.9-7.6c-1.77,0-3.41,0.17-5.1,0.27c-17.19,9.06-37.61,22.55-61.83,42.13
			c-0.96,0.78-2.24,0.66-3.09-0.29c-0.85-0.95-1.07-2.48-0.52-3.72c0.08-0.18,2.86-6.44,8.99-14.25
			c6.13-7.8,15.64-17.15,29.14-23.38c7.45-3.44,16.18-5.81,26.12-6.56c2.7-1.41,5.34-2.73,7.89-3.94c3.26-1.54,6.36-2.86,9.39-4.08
			c-0.73-0.01-1.49-0.06-2.21-0.06c-26.8,0-44.56,7.07-44.66,7.11c-1.16,0.47-2.43-0.15-3.01-1.46c-0.58-1.31-0.3-2.94,0.66-3.87
			c8.82-8.48,17.44-13.7,25.27-16.78c7.83-3.08,14.87-4.03,20.55-4.03c8.9,0,14.46,2.31,14.66,2.39c1.31,0.55,2.01,2.3,1.56,3.9
			c-0.45,1.6-1.88,2.45-3.2,1.91h0l0,0l-0.02-0.01c-0.03-0.01-0.08-0.03-0.14-0.06c-0.13-0.05-0.35-0.13-0.63-0.22
			c-0.57-0.19-1.44-0.45-2.57-0.71c-2.26-0.52-5.56-1.06-9.65-1.06c-5.22,0-11.73,0.87-19.01,3.73c-3.87,1.52-7.97,3.64-12.21,6.46
			c8.01-1.77,19.11-3.46,32.41-3.46c5.49,0,11.36,0.3,17.52,0.99c8.15-2.19,15.3-3.15,21.51-3.15c11.46,0,19.85,3.16,25.82,7.24
			c5.97,4.07,9.49,9.01,11.35,12.37c1.25,2.24,1.77,3.79,1.83,3.96c0.38,1.16,0.15,2.48-0.59,3.35c-0.74,0.87-1.83,1.1-2.77,0.6
			c-20.28-10.97-39.72-16.14-56.85-18.14c-5.79,1.6-12.18,3.9-19.18,7c12.32,1,26.24,4.51,41.93,11.61c0.05,0.02,0.1,0.05,0.16,0.08
			c1.8-0.13,3.55-0.2,5.26-0.2c11.28,0,20.73,2.75,28.51,6.91c7.78,4.16,13.89,9.71,18.55,15.25c9.34,11.09,12.97,22.09,13.06,22.34
			c0.41,1.26,0.1,2.71-0.77,3.55c-0.87,0.84-2.1,0.89-3.01,0.11c-23.5-20.04-44.2-33.34-62.36-41.72
			c-9.94,0.87-21.42,3.97-34.56,10.17c10.9,1.38,22.95,5.07,36.19,11.74c10.06,0.09,19.06,3.08,26.83,7.55
			c7.9,4.54,14.55,10.56,19.93,16.55c10.74,11.99,16.39,23.89,16.48,24.06c0.61,1.28,0.38,2.9-0.54,3.87
			c-0.93,0.97-2.27,0.99-3.22,0.06c-22.46-22.01-42.37-36.61-59.92-45.69c-0.19-0.1-0.36-0.17-0.54-0.26
			c-6.19,0.07-12.86,1.38-19.98,4.28c1.88,0.89,3.8,1.94,5.74,3.13c1.11-0.13,2.21-0.25,3.29-0.25c6.51,0,12.41,2.34,17.58,6.07
			c5.18,3.72,9.65,8.8,13.5,14.37c7.69,11.14,12.92,24.27,15.93,33.04c2,5.85,2.99,9.75,3.01,9.82c0.37,1.43-0.17,2.98-1.28,3.65
			s-2.44,0.28-3.17-0.93c-11.4-19.05-21.89-33.27-31.47-43.57c-6.54-7.03-12.64-12.2-18.32-15.88c-3.46,0.61-7.13,1.95-11.07,4.3
			c-3.51,2.09-7.23,5.07-11.13,8.86c2.24-0.37,4.71-0.64,7.31-0.64c2.83,0,5.78,0.3,8.68,1.14c2.89,0.84,5.73,2.21,8.26,4.38
			c1.68,1.45,3.22,3.25,4.51,5.45c0.59,1.01,0.63,2.35,0.09,3.4s-1.54,1.61-2.54,1.41v0h0l0,0l-0.02,0l-0.11-0.02
			c-0.09-0.02-0.24-0.04-0.44-0.07c-0.39-0.06-0.96-0.15-1.69-0.23c-1.45-0.17-3.52-0.34-5.91-0.34c-3.24,0-7.08,0.32-10.79,1.34
			c-3.71,1.02-7.27,2.75-10.04,5.43c-0.49,0.48-0.89,1.06-1.33,1.6c1.85-0.18,4.03-0.32,6.43-0.32c3.19,0,6.73,0.25,10.29,0.98
			c3.56,0.74,7.14,1.96,10.41,3.99c2.17,1.35,4.21,3.07,5.96,5.24c0.75,0.93,0.93,2.34,0.46,3.51c-0.48,1.17-1.51,1.85-2.57,1.68
			l-0.02,0l-0.08-0.01c-0.07-0.01-0.19-0.02-0.34-0.04c-0.3-0.04-0.76-0.09-1.33-0.14c-1.16-0.1-2.82-0.2-4.8-0.2
			c-3.14,0-7.09,0.26-11.11,1.16c-4.01,0.9-8.08,2.45-11.47,4.93c-0.42,0.3-0.77,0.7-1.17,1.03c0.37,0,0.74-0.01,1.14-0.01
			c3.59,0,8.02,0.2,12.5,0.92c4.48,0.73,9.03,1.95,12.91,4.15c2.58,1.47,4.91,3.4,6.61,6.04c0.64,0.99,0.72,2.36,0.2,3.45
			c-0.52,1.09-1.53,1.68-2.56,1.49l0,0l-0.02,0c-0.02,0-0.06-0.01-0.11-0.02c-0.1-0.02-0.26-0.04-0.47-0.07
			c-0.42-0.06-1.03-0.15-1.81-0.23c-1.56-0.17-3.78-0.34-6.37-0.34c-3.23,0-7.04,0.27-10.84,1.12c-3.8,0.85-7.59,2.29-10.81,4.55
			c-0.31,0.22-0.57,0.49-0.86,0.72c1.79,0.08,3.82,0.22,6.03,0.45c4.66,0.49,9.97,1.37,14.91,3.01c3.29,1.1,6.43,2.53,9.11,4.5
			c1.53,1.13,2.92,2.44,4.08,4.01c0.66,0.9,0.83,2.18,0.44,3.28c-0.4,1.1-1.29,1.82-2.27,1.84l-0.03,0l-0.11,0
			c-0.1,0-0.24,0.01-0.43,0.01c-0.38,0.01-0.94,0.03-1.65,0.06c-1.42,0.06-3.43,0.16-5.79,0.34c-4.71,0.36-10.83,1.02-16.31,2.2
			c-1.16,0.25-2.28,0.53-3.37,0.83c2.92,0.25,5.87,0.45,8.86,0.45c56.08,0,101.54-45.46,101.54-101.54S736.74,52.25,680.66,52.25z"
			/>
		<path class="st0" d="M653.75,153.09c-5.21,3.63-9.82,8.73-13.81,14.48c-6.34,9.13-11.07,19.85-14.29,28.66
			c14.51-20.69,28.16-35.25,40.9-44.92c1.9-1.44,3.77-2.77,5.63-4c-0.29-0.01-0.59-0.05-0.87-0.05
			C664.76,147.27,658.96,149.46,653.75,153.09z"/>
		<path class="st0" d="M608.19,121.42c-2.39,2.33-4.43,4.64-6.23,6.86c12.56-9.59,24.08-17.52,34.59-23.97
			c-2.78,0.88-5.46,1.86-7.94,2.99C620.21,111.15,613.46,116.28,608.19,121.42z"/>
		<polygon class="st0" points="769.25,153.36 769.25,153.36 769.32,153.33 		"/>
		<polygon class="st0" points="769.25,153.36 769.25,153.36 769.32,153.33 		"/>
		<polygon class="st0" points="769.34,153.32 769.34,153.32 769.32,153.33 		"/>
		<polygon class="st0" points="769.34,153.32 769.34,153.32 769.32,153.33 		"/>
		<polygon class="st0" points="769.34,153.32 769.25,153.36 769.32,153.33 		"/>
		<polygon class="st0" points="769.34,153.32 769.25,153.36 769.32,153.33 		"/>
		<polygon class="st0" points="769.34,153.32 769.25,153.36 769.32,153.33 		"/>
	</g>
	<g>
		<g>
			<path class="st0" d="M85.82,194.86l-9.68-5.74c-2.99-1.73-5.14-3.29-6.45-4.68c-1.31-1.39-1.97-3.11-1.97-5.15
				c0-2.36,0.87-4.25,2.6-5.67c1.73-1.42,3.93-2.13,6.61-2.13c4.25,0,7.59,1.17,10.03,3.5c2.44,2.33,4.1,6.15,5,11.45h1.89v-8.89
				c0-1.89-0.85-3.55-2.56-5c-1.71-1.44-3.91-2.54-6.61-3.31c-2.7-0.76-5.47-1.14-8.3-1.14c-5.04,0-9.08,1.22-12.12,3.66
				c-3.04,2.44-4.56,5.71-4.56,9.8c0,2.89,0.73,5.4,2.2,7.55c1.47,2.15,3.93,4.25,7.4,6.3l9.68,5.74c2.88,1.78,4.98,3.44,6.3,4.96
				c1.31,1.52,1.97,3.36,1.97,5.51c0,2.47-0.93,4.38-2.79,5.74c-1.86,1.37-4.29,2.05-7.28,2.05c-4.51,0-8.03-1.17-10.55-3.5
				c-2.52-2.33-4.2-6.18-5.04-11.53h-1.89v8.89c0,1.89,0.87,3.55,2.6,5c1.73,1.44,3.97,2.56,6.73,3.34c2.75,0.79,5.6,1.18,8.54,1.18
				c5.72,0,10.2-1.31,13.46-3.94c3.25-2.62,4.88-6.19,4.88-10.7c0-2.78-0.79-5.17-2.36-7.16C91.96,199.01,89.39,196.96,85.82,194.86
				z"/>
			<path class="st0" d="M145,211.55l-17.55-42.03h-2.99l-22.74,51.94h3.86l6.37-14.56h21.41l1.89,4.64c1.63,4.04,3.72,6.76,6.3,8.14
				c2.57,1.39,5.35,2.09,8.34,2.09c1.36,0,2.52-0.13,3.46-0.39v-1.81c-1.89-0.21-3.48-0.94-4.76-2.2
				C147.29,216.11,146.1,214.17,145,211.55z M113.44,203.52l9.36-21.48l8.97,21.48H113.44z"/>
			<path class="st0" d="M195.29,198.87c0,6.98-1.22,12.05-3.66,15.23c-2.44,3.18-6.44,4.76-12,4.76c-8.6,0-12.96-5.88-13.06-17.63
				l-0.08-21.8c0-2.68-0.21-4.71-0.63-6.1c-0.42-1.39-1.13-2.37-2.13-2.95c-1-0.58-2.44-0.87-4.33-0.87h-7.95v2.05h1.02
				c1.99,0.05,3.34,0.73,4.05,2.05c0.71,1.31,1.06,3.25,1.06,5.82v19.44c0,7.92,1.65,13.8,4.96,17.63
				c3.31,3.83,8.58,5.75,15.82,5.75c5.14,0,9.21-0.88,12.2-2.64c2.99-1.76,5.13-4.34,6.41-7.75c1.28-3.41,1.93-7.74,1.93-12.98
				v-29.35h-3.62V198.87z"/>
			<path class="st0" d="M252.11,176.29c-5.4-4.51-13.33-6.77-23.77-6.77h-21.09v2.05h1.18c2.2,0,3.67,0.64,4.41,1.93
				c0.73,1.29,1.1,3.27,1.1,5.94v42.02h16.45c6.35,0,11.77-1.1,16.25-3.31c4.49-2.2,7.87-5.28,10.15-9.25
				c2.28-3.96,3.42-8.54,3.42-13.73C260.21,187.1,257.51,180.8,252.11,176.29z M247.23,207.65c-1.68,3.49-4.01,6.17-7,8.03
				c-2.99,1.86-6.35,2.79-10.07,2.79c-1.31,0-2.45-0.04-3.42-0.12c-0.97-0.08-2.24-0.28-3.82-0.59v-44.39
				c2.73-0.58,5.09-0.87,7.08-0.87c3.83,0,7.24,0.96,10.23,2.87c2.99,1.92,5.32,4.6,7,8.07c1.68,3.46,2.52,7.48,2.52,12.04
				C249.74,200.11,248.9,204.16,247.23,207.65z"/>
			<path class="st0" d="M281.46,217.49c-0.74-1.28-1.1-3.27-1.1-5.94v-42.03h-8.97v42.03c0,2.68,0.21,4.72,0.63,6.14
				c0.42,1.42,1.13,2.4,2.12,2.95c1,0.55,2.44,0.83,4.33,0.83h8.5v-2.05h-1.1C283.66,219.41,282.19,218.77,281.46,217.49z"/>
			<path class="st0" d="M357.01,176.29c-5.4-4.51-13.33-6.77-23.77-6.77h-21.09v2.05h1.18c2.2,0,3.67,0.64,4.41,1.93
				c0.73,1.29,1.1,3.27,1.1,5.94v42.02h16.45c6.35,0,11.77-1.1,16.25-3.31c4.49-2.2,7.87-5.28,10.15-9.25
				c2.28-3.96,3.42-8.54,3.42-13.73C365.11,187.1,362.41,180.8,357.01,176.29z M352.13,207.65c-1.68,3.49-4.01,6.17-7,8.03
				c-2.99,1.86-6.35,2.79-10.07,2.79c-1.31,0-2.45-0.04-3.42-0.12c-0.97-0.08-2.24-0.28-3.82-0.59v-44.39
				c2.73-0.58,5.09-0.87,7.08-0.87c3.83,0,7.24,0.96,10.23,2.87c2.99,1.92,5.32,4.6,7,8.07c1.68,3.46,2.52,7.48,2.52,12.04
				C354.65,200.11,353.81,204.16,352.13,207.65z"/>
			<path class="st0" d="M412.25,211.55l-17.55-42.03h-2.99l-22.74,51.94h3.86l6.37-14.56h21.41l1.89,4.64
				c1.63,4.04,3.72,6.76,6.3,8.14c2.57,1.39,5.35,2.09,8.34,2.09c1.36,0,2.52-0.13,3.46-0.39v-1.81c-1.89-0.21-3.48-0.94-4.76-2.2
				C414.55,216.11,413.36,214.17,412.25,211.55z M380.7,203.52l9.36-21.48l8.97,21.48H380.7z"/>
			<path class="st0" d="M416.74,175.82v6.37h2.05c0-3.25,0.8-5.61,2.4-7.08c1.6-1.47,3.92-2.2,6.96-2.2h6.22v48.56h8.89V172.9h17
				v-3.38h-36.83C418.97,169.52,416.74,171.62,416.74,175.82z"/>
			<path class="st0" d="M500.63,216.11c-1.99,1.31-4.62,1.97-7.87,1.97h-13.61v-21.8h20.78v-3.38h-20.78V172.9h13.46
				c6.56,0,9.84,3.1,9.84,9.29h2.05v-6.37c0-4.2-2.23-6.3-6.69-6.3h-34.23v2.05h1.18c2.2,0,3.67,0.64,4.41,1.93
				c0.73,1.29,1.1,3.27,1.1,5.94v42.02h28.25c1.84,0,3.23-0.41,4.17-1.22c0.94-0.81,1.7-2.03,2.28-3.66l2.52-6.69l-1.89-0.63
				C504.28,212.52,502.62,214.8,500.63,216.11z"/>
			<path class="st0" d="M548.64,201c-1.57-1.99-4.15-4.04-7.71-6.14l-9.68-5.74c-2.99-1.73-5.14-3.29-6.45-4.68
				c-1.31-1.39-1.97-3.11-1.97-5.15c0-2.36,0.87-4.25,2.6-5.67c1.73-1.42,3.93-2.13,6.61-2.13c4.25,0,7.59,1.17,10.03,3.5
				c2.44,2.33,4.1,6.15,5,11.45h1.89v-8.89c0-1.89-0.85-3.55-2.56-5c-1.71-1.44-3.91-2.54-6.61-3.31c-2.7-0.76-5.47-1.14-8.3-1.14
				c-5.04,0-9.08,1.22-12.12,3.66c-3.04,2.44-4.56,5.71-4.56,9.8c0,2.89,0.73,5.4,2.2,7.55c1.47,2.15,3.93,4.25,7.4,6.3l9.68,5.74
				c2.88,1.78,4.98,3.44,6.3,4.96c1.31,1.52,1.97,3.36,1.97,5.51c0,2.47-0.93,4.38-2.79,5.74c-1.86,1.37-4.29,2.05-7.28,2.05
				c-4.51,0-8.03-1.17-10.55-3.5c-2.52-2.33-4.2-6.18-5.04-11.53h-1.89v8.89c0,1.89,0.87,3.55,2.6,5c1.73,1.44,3.97,2.56,6.73,3.34
				c2.75,0.79,5.6,1.18,8.54,1.18c5.72,0,10.2-1.31,13.46-3.94c3.25-2.62,4.88-6.19,4.88-10.7C551,205.38,550.21,202.99,548.64,201z
				"/>
		</g>
		<g>
			<path class="st0" d="M69.14,93.9c1.27,0,2.34-0.45,3.21-1.35c0.87-0.9,1.31-1.96,1.31-3.18c0-1.27-0.44-2.35-1.31-3.25
				c-0.87-0.9-1.94-1.35-3.21-1.35c-1.22,0-2.28,0.45-3.18,1.35c-0.9,0.9-1.35,1.98-1.35,3.25c0,1.22,0.45,2.28,1.35,3.18
				C66.86,93.45,67.92,93.9,69.14,93.9z"/>
			<path class="st0" d="M80.73,93.9c1.27,0,2.34-0.45,3.21-1.35c0.87-0.9,1.31-1.96,1.31-3.18c0-1.27-0.44-2.35-1.31-3.25
				c-0.87-0.9-1.94-1.35-3.21-1.35c-1.22,0-2.28,0.45-3.18,1.35c-0.9,0.9-1.35,1.98-1.35,3.25c0,1.22,0.45,2.28,1.35,3.18
				C78.45,93.45,79.51,93.9,80.73,93.9z"/>
			<path class="st0" d="M113.12,143.52c-1.22,0-2.28,0.45-3.18,1.35c-0.9,0.9-1.35,1.98-1.35,3.25c0,1.22,0.45,2.28,1.35,3.18
				c0.9,0.9,1.96,1.35,3.18,1.35c1.27,0,2.34-0.45,3.21-1.35c0.87-0.9,1.31-1.96,1.31-3.18c0-1.27-0.44-2.36-1.31-3.25
				C115.46,143.97,114.39,143.52,113.12,143.52z"/>
			<path class="st0" d="M124.71,143.52c-1.22,0-2.28,0.45-3.18,1.35c-0.9,0.9-1.35,1.98-1.35,3.25c0,1.22,0.45,2.28,1.35,3.18
				c0.9,0.9,1.96,1.35,3.18,1.35c1.27,0,2.34-0.45,3.21-1.35c0.87-0.9,1.31-1.96,1.31-3.18c0-1.27-0.44-2.36-1.31-3.25
				C127.05,143.97,125.98,143.52,124.71,143.52z"/>
			<path class="st0" d="M112,137.17c5.98,0,10.21-2.12,12.7-6.35c2.49-4.23,3.73-9.26,3.73-15.08c0-4.55-0.75-8.47-2.26-11.75
				c-1.51-3.28-3.93-4.92-7.26-4.92c-1.75,0-3.2,0.53-4.37,1.59c2.75,2.33,4.56,4.99,5.44,7.98c0.87,2.99,1.31,6.15,1.31,9.49
				c0,3.07-0.54,6.09-1.63,9.05c-1.09,2.96-3.45,4.45-7.11,4.45h-5.32h-3.95h-8.2h0h-5.4v-20c0-4.71-1.3-7.98-3.89-9.8
				c-2.59-1.83-6.22-2.74-10.88-2.74c-3.39,0-6.17,0.5-8.34,1.51c-2.17,1.01-3.86,2.92-5.08,5.76c-1.22,2.83-1.83,6.87-1.83,12.11
				c0,6.51,1.1,11.29,3.29,14.33c2.2,3.04,5.94,4.56,11.23,4.56c3.18,0,5.98-0.58,8.41-1.75c0.74,0.42,1.59,0.79,2.54,1.11
				c0.95,0.32,2.3,0.48,4.05,0.48h5.87h0h12.14v0l0,0H112z M82.55,131.61H77c-4.23,0-6.99-1.44-8.26-4.33
				c-1.27-2.88-1.91-5.89-1.91-9.01c0-9.1,2.86-13.65,8.57-13.65c4.76,0,7.14,2.96,7.14,8.89V131.61z"/>
			<path class="st0" d="M160.7,101.68c-2.51-1.75-5.62-2.62-9.33-2.62c-3.7,0-6.74,0.83-9.09,2.5c-2.36,1.67-3.53,3.77-3.53,6.31
				c0,2.12,0.87,3.57,2.62,4.37c1.06,0.48,2.27,0.66,3.65,0.56c0-2.27,0.53-4.05,1.59-5.32c1.06-1.27,2.57-2.22,4.52-2.86
				c2.96-0.05,5.33,1.05,7.1,3.3c1.77,2.25,2.66,5.15,2.66,8.69c0,4.23-1.32,7.79-3.97,10.68c-2.65,2.88-6.7,4.33-12.15,4.33h-4.21
				c-1.06,0-1.83,0.29-2.3,0.87c-0.48,0.58-0.71,1.27-0.71,2.06c0,0.69,0.17,1.3,0.52,1.83c0.34,0.53,0.89,0.79,1.63,0.79h11.59
				c3.81,0,6.97-1.12,9.49-3.37c2.51-2.25,4.35-4.96,5.52-8.14c1.16-3.18,1.75-6.19,1.75-9.05c0-2.8-0.6-5.56-1.79-8.26
				C165.07,105.65,163.22,103.43,160.7,101.68z"/>
			<path class="st0" d="M348.96,84.77c-1.11,0-2.18,0.23-3.22,0.68c-1.03,0.45-1.71,0.89-2.02,1.31c1.11,0.74,2.12,1.98,3.02,3.73
				c0.9,1.75,1.35,3.76,1.35,6.03v25.72c0,2.01-0.07,3.64-0.2,4.88c-0.13,1.24-0.52,2.3-1.15,3.18c-0.63,0.87-1.64,1.31-3.02,1.31
				h-5.16h0h-16.11c2.91-3.81,4.37-9.1,4.37-15.88c0-4.55-0.75-8.47-2.26-11.75c-1.51-3.28-3.93-4.92-7.26-4.92
				c-1.75,0-3.2,0.53-4.37,1.59c2.75,2.33,4.56,4.99,5.44,7.98c0.87,2.99,1.31,6.15,1.31,9.49c0,2.81-0.54,5.75-1.63,8.85
				c-1.09,3.1-3.45,4.64-7.1,4.64h-4.84c-2.22,0-3.74-1.06-4.56-3.18c-0.82-2.12-1.23-4.52-1.23-7.22v-15.96
				c0-2.49-1.11-3.73-3.33-3.73c-1.22,0-2.16,0.33-2.82,0.99c-0.66,0.66-0.99,1.58-0.99,2.74v20.4c0,1.9-0.53,3.37-1.59,4.41
				c-1.06,1.03-2.94,1.55-5.64,1.55h-6.03c-1.48,0-2.41-0.65-2.78-1.94c-0.37-1.3-0.56-3.48-0.56-6.55v-16.04
				c0-1.32-0.31-2.26-0.91-2.82c-0.61-0.56-1.5-0.83-2.66-0.83c-2.38,0-3.57,1.22-3.57,3.65v18.1c0,1.38-0.15,2.5-0.44,3.37
				c-0.29,0.87-0.95,1.6-1.98,2.18c-1.03,0.58-2.61,0.87-4.72,0.87h-3.02h-8.57c1.53-2.12,2.63-4.54,3.29-7.26
				c0.66-2.72,0.99-5.15,0.99-7.26c0-5.77-2-10.21-5.99-13.34c-4-3.12-9.2-4.68-15.6-4.68c-3.33,0-6.23,0.44-8.69,1.31
				s-4.42,1.97-5.87,3.29c-1.46,1.32-2.4,2.65-2.82,3.97l17.62,23.97h-19.69h-6.75v-20c0-4.71-1.3-7.98-3.89-9.8
				c-2.59-1.83-6.22-2.74-10.88-2.74c-3.39,0-6.17,0.5-8.34,1.51c-2.17,1.01-3.86,2.92-5.08,5.76c-1.22,2.83-1.83,6.87-1.83,12.11
				c0,6.51,1.1,11.29,3.29,14.33c2.2,3.04,5.94,4.56,11.23,4.56l8.41-0.16l-0.08,6.27c0,2.38-0.87,4.35-2.62,5.91
				c-1.75,1.56-4.08,2.34-6.99,2.34c-1.43,0-3.07-0.21-4.92-0.63c0.69,1.11,1.91,2.1,3.65,2.98c1.75,0.87,3.78,1.31,6.11,1.31
				c3.07,0,5.49-0.71,7.26-2.14c1.77-1.43,2.99-3.11,3.65-5.04c0.66-1.93,0.99-3.8,0.99-5.6v-5.4h6.75h25.88
				c1.38,0,2.65-0.16,3.81-0.48c1.11,0.32,2.51,0.48,4.21,0.48h11.43h5.48c2.91,0,5.53-0.95,7.86-2.86c2.38,1.9,5.27,2.86,8.65,2.86
				h7.46c1.59,0,3.14-0.45,4.64-1.35c1.51-0.9,2.79-1.98,3.85-3.25c1.69,1.75,3.44,2.95,5.24,3.61c1.8,0.66,4.15,0.99,7.07,0.99
				h0.87c3.12,0,5.85-0.69,8.18-2.06c0.95,0.69,2,1.2,3.14,1.55c1.14,0.35,2.58,0.52,4.33,0.52h12.54h0h4.52
				c3.49,0,6.38-1.3,8.65-3.89c2.27-2.59,3.44-6.43,3.49-11.51V93.59c0-3.18-0.61-5.44-1.83-6.79
				C352.19,85.45,350.71,84.77,348.96,84.77z M200.04,131.61h-5.56c-4.23,0-6.99-1.44-8.26-4.33c-1.27-2.88-1.91-5.89-1.91-9.01
				c0-9.1,2.86-13.65,8.57-13.65c4.76,0,7.14,2.96,7.14,8.89V131.61z M246.2,125.22c-1.14,2.78-3.06,4.67-5.76,5.68l-16.91-22.86
				c2.17-2.22,5.48-3.33,9.92-3.33c4.5,0,8.03,1.07,10.6,3.22c2.57,2.14,3.85,5.23,3.85,9.25
				C247.91,119.76,247.34,122.44,246.2,125.22z"/>
			<path class="st0" d="M369.6,84.77c-1.11,0-2.18,0.23-3.22,0.68c-1.03,0.45-1.71,0.89-2.02,1.31c1.11,0.74,2.12,1.98,3.02,3.73
				c0.9,1.75,1.35,3.76,1.35,6.03v35.56c0,1.75,0.2,3.03,0.6,3.85c0.4,0.82,1.36,1.23,2.9,1.23c1.53,0,2.53-0.42,2.98-1.27
				c0.45-0.85,0.67-2.12,0.67-3.81v-38.5c0-3.18-0.61-5.44-1.83-6.79C372.83,85.45,371.35,84.77,369.6,84.77z"/>
			<path class="st0" d="M416.12,99.82c-0.69-0.5-1.54-0.75-2.54-0.75c-2.38,0-3.57,1.11-3.57,3.33l0.08,41.52
				c0,1.16-0.31,2.35-0.91,3.57c-0.61,1.22-1.6,2.25-2.98,3.1c-1.38,0.85-3.1,1.27-5.16,1.27c-1.75,0-3.39-0.21-4.92-0.63
				c0.53,0.79,1.54,1.68,3.02,2.66c1.48,0.98,3.57,1.47,6.27,1.47c2.96,0,5.32-0.71,7.07-2.14c1.75-1.43,2.96-3.08,3.65-4.96
				c0.69-1.88,1.03-3.64,1.03-5.28v-40.64C417.15,101.15,416.81,100.32,416.12,99.82z"/>
			<path class="st0" d="M546.47,93.9c1.27,0,2.34-0.45,3.21-1.35c0.87-0.9,1.31-1.96,1.31-3.18c0-1.27-0.44-2.35-1.31-3.25
				c-0.87-0.9-1.94-1.35-3.21-1.35c-1.22,0-2.28,0.45-3.18,1.35c-0.9,0.9-1.35,1.98-1.35,3.25c0,1.22,0.45,2.28,1.35,3.18
				C544.2,93.45,545.25,93.9,546.47,93.9z"/>
			<path class="st0" d="M534.88,93.9c1.27,0,2.34-0.45,3.21-1.35c0.87-0.9,1.31-1.96,1.31-3.18c0-1.27-0.44-2.35-1.31-3.25
				c-0.87-0.9-1.94-1.35-3.21-1.35c-1.22,0-2.28,0.45-3.18,1.35c-0.9,0.9-1.35,1.98-1.35,3.25c0,1.22,0.45,2.28,1.35,3.18
				C532.61,93.45,533.66,93.9,534.88,93.9z"/>
			<path class="st0" d="M540.6,99.06c-1.75,0-3.2,0.53-4.37,1.59c2.75,2.33,4.56,4.99,5.44,7.98c0.87,2.99,1.31,6.15,1.31,9.49
				c0,3.07-0.54,6.09-1.63,9.05c-1.09,2.96-3.45,4.45-7.11,4.45h-5.32h0h-9.13c1.69-2.86,2.54-7.25,2.54-13.18
				c0-5.24-0.61-9.27-1.83-12.11c-1.22-2.83-2.91-4.75-5.08-5.76c-2.17-1-4.95-1.51-8.34-1.51c-4.66,0-8.28,0.91-10.88,2.74
				c-2.59,1.83-3.89,5.09-3.89,9.8v20h-5.4h-12.15l0,0v0h-12.15h-6.75v-20c0-4.71-1.3-7.98-3.89-9.8
				c-2.59-1.83-6.22-2.74-10.88-2.74c-3.39,0-6.17,0.5-8.34,1.51c-2.17,1.01-3.86,2.92-5.08,5.76c-1.22,2.83-1.83,6.87-1.83,12.11
				c0,6.51,1.1,11.29,3.29,14.33c2.2,3.04,5.94,4.56,11.23,4.56l8.41-0.16l-0.08,6.27c0,2.38-0.87,4.35-2.62,5.91
				c-1.75,1.56-4.08,2.34-6.99,2.34c-1.43,0-3.07-0.21-4.92-0.63c0.69,1.11,1.91,2.1,3.65,2.98c1.75,0.87,3.78,1.31,6.11,1.31
				c3.07,0,5.49-0.71,7.26-2.14c1.77-1.43,2.99-3.11,3.65-5.04c0.66-1.93,0.99-3.8,0.99-5.6v-5.4h6.75h7.41h4.73h12.15h5.87
				c1.75,0,3.1-0.16,4.05-0.48c0.95-0.32,1.8-0.69,2.54-1.11c2.43,1.16,5.24,1.75,8.41,1.75c3.55,0,6.4-0.69,8.57-2.06
				c1.91,1.27,4.31,1.9,7.22,1.9h5.32h0h4.76c5.98,0,10.21-2.12,12.7-6.35c2.49-4.23,3.73-9.26,3.73-15.08
				c0-4.55-0.75-8.47-2.26-11.75C546.35,100.7,543.93,99.06,540.6,99.06z M448.75,131.61h-5.56c-4.23,0-6.99-1.44-8.26-4.33
				c-1.27-2.88-1.91-5.89-1.91-9.01c0-9.1,2.86-13.65,8.57-13.65c4.76,0,7.14,2.96,7.14,8.89V131.61z M513.29,127.28
				c-1.27,2.88-4.02,4.33-8.26,4.33h-5.56v-18.1c0-5.93,2.38-8.89,7.14-8.89c5.72,0,8.57,4.55,8.57,13.65
				C515.19,121.4,514.56,124.4,513.29,127.28z"/>
		</g>
	</g>
</g>
</svg>
